<?xml version="1.0" encoding="utf-8"?>
<!-- Generator: Adobe Illustrator 19.1.0, SVG Export Plug-In . SVG Version: 6.00 Build 0)  -->
<svg version="1.1" id="Layer_1" xmlns="http://www.w3.org/2000/svg" xmlns:xlink="http://www.w3.org/1999/xlink" x="0px" y="0px"
	 viewBox="0 0 212 21" style="enable-background:new 0 0 212 21;" xml:space="preserve">
<style type="text/css">
	.st0{fill:#231F20;}
	.st1{fill:none;stroke:#FFFFFF;stroke-width:0.5;}
</style>
<g>
	<path class="st0" d="M212,5.6c0-1.3-0.3-4.4-0.1-5.4c0.1-0.2-0.3-0.2-0.4-0.1c-0.6,0.5-1.8,0.7-8.6,0.7c-6.5,0-7.5-0.2-8.2-0.7
		c-0.1-0.1-0.4-0.1-0.4,0.1c0,1-0.7,3.9-0.9,5.2c0,0.1,0.4,0.2,0.5,0c1-2.4,2.5-4,5.2-4c0.9,0,1.4,0,2.1,0.1
		c0.1,1.1,0.1,3.9,0.1,8.9c0,8.5-0.1,9.2-0.4,9.3c-0.3,0.2-1.4,0.2-2.1,0.4c-0.2,0.1-0.2,0.4,0,0.4c0.8-0.1,2.4-0.1,3.9-0.1
		c1.5,0,3,0,3.8,0.1c0.1,0,0.2-0.3,0-0.4c-0.7-0.2-1.6-0.1-2-0.4c-0.2-0.1-0.4-0.9-0.4-9.3c0-5.1,0.1-7.9,0.1-8.9
		c0.8-0.1,1.4-0.1,2.6-0.1c2.9,0,3.8,1.6,4.6,4.2C211.6,5.8,212,5.8,212,5.6 M192.7,15.3c0.1-0.2-0.4-0.2-0.4-0.1
		c-0.5,1.4-1.4,3.1-2,3.6c-0.8,0.6-1.6,1-4.9,1c-1.6,0-2.6-0.1-3-0.3c-0.2-0.1-0.4-0.6-0.4-8c0-0.4,0.1-0.7,0.2-0.8
		c0.3-0.1,0.6-0.1,2.3-0.1c1.3,0,2.1,0.2,2.4,0.5c0.5,0.4,1,1.4,1.1,2.4c0,0.2,0.4,0.2,0.4,0c-0.1-0.8-0.1-1.8-0.1-3.3
		c0-1.5,0.1-2.5,0.1-3.2c0-0.1-0.4-0.2-0.4,0c-0.2,1-0.6,1.9-1.2,2.4c-0.4,0.3-0.9,0.5-2.4,0.5c-1.7,0-2,0-2.3-0.1
		c-0.1-0.1-0.2-0.4-0.2-0.8c0-6.8,0.2-7.3,0.4-7.5c0.3-0.2,0.9-0.3,2.5-0.3c2.7,0,3.6,0.3,4.3,0.8c0.7,0.5,1.2,1.7,1.7,3
		c0,0.1,0.5,0.1,0.4-0.1c-0.1-0.6-0.3-4.4-0.5-4.5c-1.8,0.1-3.6,0.1-6.7,0.1c-3.1,0-5.5-0.1-7.1-0.1c-0.3,0-0.2,0.3,0,0.4
		c0.7,0.2,1.5,0.2,1.9,0.4c0.2,0.1,0.4,0.9,0.4,9.4c0,8.5-0.2,9.2-0.4,9.3c-0.4,0.2-1.2,0.2-1.9,0.4c-0.2,0.1-0.3,0.4,0,0.4
		c1.6-0.1,4.5-0.1,7.6-0.1c3.2,0,5.4,0,7.2,0.1C192,20.5,192.5,16.1,192.7,15.3 M175.4,15.3c0.1-0.2-0.4-0.2-0.4-0.1
		c-0.5,1.4-1.4,3.1-2,3.6c-0.8,0.6-1.6,1-4.9,1c-1.6,0-2.6-0.1-3-0.3c-0.2-0.1-0.4-0.6-0.4-8c0-0.4,0.1-0.7,0.2-0.8
		c0.3-0.1,0.6-0.1,2.3-0.1c1.3,0,2.1,0.2,2.4,0.5c0.5,0.4,1,1.4,1.1,2.4c0,0.2,0.4,0.2,0.4,0c-0.1-0.8-0.1-1.8-0.1-3.3
		c0-1.5,0.1-2.5,0.1-3.2c0-0.1-0.4-0.2-0.4,0c-0.2,1-0.6,1.9-1.2,2.4c-0.4,0.3-0.9,0.5-2.4,0.5c-1.7,0-2,0-2.3-0.1
		c-0.1-0.1-0.2-0.4-0.2-0.8c0-6.8,0.2-7.3,0.4-7.5c0.3-0.2,0.9-0.3,2.5-0.3c2.7,0,3.6,0.3,4.3,0.8c0.7,0.5,1.2,1.7,1.7,3
		c0,0.1,0.5,0.1,0.4-0.1c-0.1-0.6-0.3-4.4-0.5-4.5c-1.8,0.1-3.6,0.1-6.7,0.1c-3.1,0-5.5-0.1-7.1-0.1c-0.3,0-0.2,0.3,0,0.4
		c0.7,0.2,1.5,0.2,1.9,0.4c0.2,0.1,0.4,0.9,0.4,9.4c0,8.5-0.2,9.2-0.4,9.3c-0.4,0.2-1.2,0.2-1.9,0.4c-0.2,0.1-0.3,0.4,0,0.4
		c1.6-0.1,4.5-0.1,7.6-0.1c3.2,0,5.4,0,7.2,0.1C174.7,20.5,175.2,16.1,175.4,15.3 M157.8,20.5c0.1,0,0.2-0.3-0.1-0.4
		c-0.7-0.2-1.5-0.1-1.9-0.4c-0.2-0.1-0.4-0.9-0.4-9.3c0-8.5,0.2-9.3,0.4-9.4c0.4-0.2,1.2-0.2,1.9-0.4c0.3-0.1,0.2-0.4,0.1-0.4
		c-0.8,0.1-2.2,0.1-3.7,0.1c-1.5,0-2.8-0.1-3.6-0.1c-0.1,0-0.2,0.3,0,0.4c0.7,0.2,1.4,0.2,1.8,0.4c0.2,0.1,0.4,1,0.4,7.8
		c0,0.4,0,0.7-0.2,0.8c-0.3,0.2-0.8,0.2-4.9,0.2c-4.1,0-4.6,0-4.9-0.2c-0.2-0.1-0.2-0.4-0.2-0.8c0-6.8,0.2-7.6,0.4-7.8
		c0.4-0.2,1.1-0.2,1.8-0.4c0.2-0.1,0.2-0.4,0-0.4c-0.8,0.1-2.1,0.1-3.6,0.1c-1.5,0-2.9-0.1-3.6-0.1c-0.2,0-0.2,0.3,0,0.4
		c0.7,0.2,1.5,0.2,1.9,0.4c0.2,0.1,0.4,0.9,0.4,9.4c0,8.5-0.2,9.2-0.4,9.3c-0.4,0.2-1.2,0.2-1.9,0.4c-0.3,0.1-0.2,0.4,0,0.4
		c0.8-0.1,2.1-0.1,3.6-0.1c1.5,0,2.8,0,3.6,0.1c0.1,0,0.2-0.3,0-0.4c-0.7-0.2-1.4-0.1-1.8-0.4c-0.2-0.1-0.4-1-0.4-8.4
		c0-0.4,0-0.7,0.2-0.8c0.3-0.2,0.8-0.2,4.9-0.2c4.1,0,4.6,0,4.9,0.2c0.2,0.1,0.2,0.4,0.2,0.8c0,7.4-0.2,8.2-0.4,8.4
		c-0.4,0.2-1.1,0.2-1.8,0.4c-0.2,0.1-0.2,0.4,0,0.4c0.8-0.1,2.1-0.1,3.6-0.1C155.6,20.4,157,20.5,157.8,20.5 M135.5,15.3
		c0-6.7-9.4-6.2-9.4-11.1c0-2.3,1.4-3.6,3.2-3.6c2.3,0,3.8,1.7,4.7,4.3c0,0.1,0.4,0.1,0.3-0.1c-0.1-1.1-0.1-4-0.4-4.1
		c-1.3-0.6-2.5-0.8-4.1-0.8c-4.1,0-6.4,2.3-6.4,5.6c0,5.7,9.4,5.2,9.4,10.7c0,2.5-1.6,4.1-3.7,4.1c-2.9,0-4.6-1.6-6-5.6
		c-0.1-0.1-0.4-0.1-0.4,0.1c0.1,1.1,0.2,5,0.4,5.1c2.1,0.9,4,1.2,5.4,1.2C132.9,21,135.5,18.3,135.5,15.3 M118,10.6
		c0,5.8-2.6,9.3-7.2,9.3c-2.6,0-3.2-0.1-3.7-0.6c-0.5-0.4-0.8-1.7-0.8-8.8c0-8.5,0.2-8.9,0.4-9c0.4-0.2,1.2-0.4,2.7-0.4
		C114.9,1.1,118,4.3,118,10.6 M121.2,10.5c0-5.7-3.5-10.1-11.2-10.1c-0.8,0-2.5,0.1-4,0.1c-1.5,0-3.8-0.1-4.6-0.1
		c-0.1,0-0.2,0.3,0.1,0.4c0.7,0.2,1.5,0.2,1.9,0.4c0.2,0.1,0.4,0.9,0.4,9.4c0,8.5-0.1,9.2-0.4,9.3c-0.4,0.2-1.2,0.2-1.9,0.4
		c-0.3,0.1-0.2,0.4-0.1,0.4c0.8-0.1,3.3-0.1,4.8-0.1c1.5,0,3.5,0.1,4.2,0.1C116.6,20.5,121.2,16.1,121.2,10.5 M92.7,11.6h-2.2
		c-2.1,0-2.3,0-3.5,0c0.9-2.4,1.7-4.5,2.8-7.3c0-0.1,0.1-0.1,0.2,0C90.8,6.4,91.9,9.3,92.7,11.6 M101.2,20.5c0.2,0,0.2-0.3,0-0.4
		c-0.7-0.2-1.7-0.2-2-0.5c-0.8-0.5-1.5-2.3-7.6-19.7c-0.1-0.1-0.8-0.2-0.8,0c-3.9,10.8-6.7,17.9-7.5,19.1c-0.4,0.6-0.8,0.9-2.2,1.1
		c-0.2,0-0.2,0.4,0,0.4c0.8-0.1,1.4-0.1,2.9-0.1c1.5,0,1.9,0,2.7,0.1c0.1,0,0.2-0.3-0.1-0.4c-1.6-0.3-1.9-0.5-1.9-1
		c0-0.6,1-3.2,2.3-6.9c0.7,0,1.8-0.1,3.8-0.1H93c0.5,1.4,0.9,2.6,1.4,3.8c1.2,3.3,0.9,3.6,0.6,3.8c-0.4,0.2-1.3,0.1-2,0.3
		c-0.2,0.1-0.2,0.4,0,0.4c0.8-0.1,3.3-0.1,4.9-0.1C99.2,20.4,100.4,20.5,101.2,20.5 M79.3,10.6c0,6-2.5,9.7-6.7,9.7
		c-4.3,0-7.4-3.9-7.4-9.9c0-6,2.5-9.7,6.7-9.7C76.2,0.7,79.3,4.5,79.3,10.6 M82.5,10.7C82.5,5,78.8,0,72.2,0C66.5,0,62,4.6,62,10.3
		C62,16,65.7,21,72.3,21C77.9,21,82.5,16.4,82.5,10.7 M56.1,5.7c0,2.3-1.3,4.8-4,4.8c-1.7,0-2.1,0-2.4-0.1c-0.2-0.1-0.2-0.2-0.2-0.4
		c0-7.1,0.2-8.4,0.4-8.6c0.4-0.2,0.8-0.3,2-0.3C54.9,1.1,56.1,3,56.1,5.7 M63.3,20.5c0.1,0,0.2-0.3-0.1-0.4
		c-0.9-0.1-1.4-0.3-2.1-0.6c-1-0.5-1.8-1.6-3.9-5c-1.1-1.8-1.9-3.1-2.5-3.7c-0.1-0.1-0.1-0.2,0-0.3c2.7-0.6,4.7-2.8,4.7-5.1
		c0-3.1-2.8-5.2-6.9-5.2c-0.8,0-1.8,0.1-3.3,0.1c-1.5,0-3.8-0.1-4.6-0.1c-0.2,0-0.2,0.3,0,0.4c0.7,0.2,1.5,0.2,1.9,0.4
		c0.2,0.1,0.4,0.9,0.4,9.4c0,8.5-0.2,9.2-0.4,9.3C46,20,45.2,20,44.5,20.2c-0.3,0.1-0.2,0.4,0,0.4c0.8-0.1,2.1-0.1,3.6-0.1
		c1.5,0,2.9,0,3.7,0.1c0.1,0,0.2-0.3,0-0.4C51,20,50.3,20,49.9,19.8c-0.2-0.1-0.4-0.8-0.4-8.2c0-0.3,0.1-0.3,0.2-0.4
		s0.5-0.1,0.8-0.1c1.3,0,1.7,0.3,2.5,1.5c0.8,1.1,1.9,3.1,3.4,5.6c0.6,1,1.3,2.3,1.7,2.3c0.4,0,2.1-0.1,2.8-0.1
		C61.6,20.4,62.5,20.5,63.3,20.5 M39.4,15.4c0,2.7-1.5,4.5-4.3,4.5c-1.8,0-2.3-0.1-2.7-0.5c-0.5-0.4-0.6-1.8-0.6-8.7
		c0-0.2,0-0.3,0.2-0.4c0.3-0.1,0.5-0.1,1.8-0.1C37.8,10.1,39.4,12.4,39.4,15.4 M38,5.2c0,2.3-1.5,4.2-4.2,4.2c-1.4,0-1.4,0-1.8-0.1
		c-0.2-0.1-0.2-0.2-0.2-0.4c0-7.1,0.1-7.4,0.4-7.6c0.3-0.2,0.5-0.3,1.6-0.3C36.8,1.1,38,2.6,38,5.2 M42.5,14.9c0-2.5-2-4.6-6.1-5.2
		c-0.1,0-0.1-0.2,0-0.3c2.8-0.6,4.7-2.1,4.7-4.4c0-3.1-2.9-4.7-6.8-4.7c-0.8,0-1.4,0.1-2.9,0.1c-1.5,0-3.8-0.1-4.6-0.1
		c-0.1,0-0.2,0.3,0,0.4c0.7,0.2,1.5,0.2,1.9,0.4C28.9,1.2,29,2,29,10.5c0,8.5-0.1,9.2-0.4,9.3c-0.4,0.2-1.2,0.2-1.9,0.4
		c-0.2,0.1-0.2,0.4,0,0.4c0.8-0.1,3.3-0.1,4.8-0.1c1.5,0,2.6,0.1,3.3,0.1C39.2,20.5,42.5,18.5,42.5,14.9"/>
	<path class="st0" d="M14.2,1.9c0,0-0.9-1.6-2.5-0.8l0,0c0,0-1.6,0.8-3.3,0l0,0c0,0-1.6-0.8-2.5,0.8L5.8,2c0,0-0.9,1.6-2.6,2l0,0
		c0,0-1.8,0.4-1.6,2.2l0,0.2c0,0,0.2,1.8-1,3.2L0.5,9.6c0,0-1.2,1.4,0,2.7l0.1,0.1c0,0,1.2,1.4,1,3.2l0,0.2c0,0-0.2,1.8,1.6,2.2l0,0
		c0,0,1.8,0.4,2.6,2l0.1,0.1c0,0,0.9,1.6,2.5,0.8l0,0c0,0,1.6-0.8,3.3,0l0,0c0,0,1.6,0.8,2.5-0.8l0.1-0.1c0,0,0.9-1.6,2.6-2l0,0
		c0,0,1.8-0.4,1.6-2.2l0-0.2c0,0-0.2-1.8,1-3.2l0.1-0.1c0,0,1.2-1.4,0-2.7l-0.1-0.1c0,0-1.2-1.4-1-3.2l0-0.2c0,0,0.2-1.8-1.6-2.2
		l0,0c0,0-1.8-0.4-2.6-2L14.2,1.9z"/>
	<path class="st1" d="M7.7,19.8c-0.7,0-1-0.7-1-0.7L6.6,19c-0.9-1.7-2.7-2.1-2.8-2.1c-1.1-0.2-1.1-1.3-1.1-1.5l0-0.2
		c0.2-1.9-1-3.2-1-3.3c-0.9-1-0.1-1.9-0.1-1.9C3,8.6,2.8,6.7,2.8,6.7l0-0.2C2.6,5.3,3.8,5.1,3.8,5C5.7,4.7,6.6,3,6.6,3l0.1-0.1
		c0.2-0.4,0.6-0.7,1-0.7c0.3,0,0.6,0.1,0.6,0.1C8.8,2.6,9.4,2.7,10,2.7c1,0,1.7-0.4,1.8-0.4c0.2-0.1,0.4-0.2,0.6-0.2
		c0.7,0,1,0.7,1,0.7L13.5,3C14.4,4.6,16.2,5,16.2,5c1.1,0.2,1.1,1.3,1.1,1.5l0,0.2c-0.2,1.9,1,3.2,1,3.3c0.8,1,0.1,1.8,0.1,1.9
		c-1.3,1.5-1.1,3.3-1.1,3.4l0,0.2c0.1,1.2-0.9,1.4-1.1,1.5c-1.8,0.4-2.7,2-2.8,2.1l-0.1,0.1c-0.2,0.4-0.6,0.7-1,0.7
		c-0.3,0-0.6-0.1-0.6-0.1c-0.5-0.3-1.1-0.4-1.7-0.4c-1,0-1.7,0.4-1.8,0.4C8.1,19.7,7.9,19.8,7.7,19.8z"/>
</g>
</svg>
